<?xml version="1.0" standalone="no"?>
<!DOCTYPE svg PUBLIC "-//W3C//DTD SVG 20010904//EN"
 "http://www.w3.org/TR/2001/REC-SVG-20010904/DTD/svg10.dtd">
<svg version="1.0" xmlns="http://www.w3.org/2000/svg"
 width="362.000000pt" height="573.000000pt" viewBox="0 0 362.000000 573.000000"
 preserveAspectRatio="xMidYMid meet">

<g transform="translate(0.000000,573.000000) scale(0.100000,-0.100000)"
fill="#000000" stroke="none">
<path d="M1049 5138 c-2 -25 3 -43 16 -57 19 -20 40 21 25 49 -12 22 -39 27
-41 8z"/>
<path d="M1175 5140 c4 -6 -9 -17 -27 -25 l-33 -16 43 3 c31 3 42 0 42 -11 0
-7 8 -20 18 -27 16 -12 15 -13 -8 -23 -14 -5 -19 -10 -12 -10 6 -1 12 -8 12
-17 0 -9 -6 -14 -13 -11 -9 3 -13 -14 -15 -69 l-2 -74 30 0 30 0 0 145 0 145
-36 0 c-21 0 -33 -4 -29 -10z"/>
<path d="M1326 5049 c-32 -25 -33 -35 -3 -43 14 -3 26 0 33 9 15 20 53 19 61
-1 7 -20 -8 -30 -58 -38 -50 -8 -77 -45 -61 -81 14 -30 56 -42 96 -26 20 7 32
8 34 1 2 -5 17 -10 33 -10 26 0 28 2 19 26 -6 14 -10 54 -10 89 0 55 -3 66
-22 79 -32 23 -90 20 -122 -5z m94 -108 c0 -24 -24 -44 -47 -39 -27 5 -22 41
7 49 38 11 40 10 40 -10z"/>
<path d="M1553 5046 c-25 -21 -28 -31 -28 -81 0 -50 3 -60 28 -81 36 -31 94
-32 131 -3 31 25 33 45 5 54 -15 5 -25 1 -35 -14 -32 -44 -74 -19 -74 44 0 60
33 84 70 50 16 -14 60 -10 60 5 0 5 -12 18 -26 29 -37 29 -95 28 -131 -3z"/>
<path d="M1750 4965 l0 -105 30 0 c28 0 30 2 30 41 0 34 2 39 14 30 8 -6 19
-25 26 -41 10 -24 19 -30 41 -30 16 0 29 3 29 8 0 10 -41 76 -52 83 -14 9 18
79 36 79 9 0 16 9 16 21 0 16 -5 20 -27 17 -21 -2 -34 -14 -53 -48 l-25 -45
-3 48 c-3 45 -5 47 -33 47 l-29 0 0 -105z"/>
<path d="M1972 5054 c-26 -18 -29 -39 -6 -48 25 -10 32 -7 39 14 3 11 13 20
22 20 13 0 13 3 3 15 -16 19 -30 19 -58 -1z"/>
<path d="M2070 5055 c7 -8 17 -12 22 -9 6 4 5 10 -3 15 -22 14 -33 10 -19 -6z"/>
<path d="M2180 5061 c0 -4 11 -6 25 -3 14 2 25 6 25 8 0 2 -11 4 -25 4 -14 0
-25 -4 -25 -9z"/>
<path d="M2305 5060 c3 -6 -4 -14 -17 -19 -23 -10 -23 -10 -1 -10 27 -1 40
-20 22 -32 -8 -5 -29 -9 -48 -9 -29 0 -33 3 -29 23 4 20 1 23 -24 19 l-29 -4
22 -24 c12 -13 33 -24 46 -24 13 0 23 -6 23 -14 0 -8 10 -16 23 -18 14 -2 22
-10 22 -23 0 -16 -8 -21 -41 -23 -36 -3 -42 0 -49 20 -6 19 -8 20 -12 6 -2
-10 -11 -18 -19 -18 -8 0 -14 -10 -14 -25 0 -25 1 -25 80 -25 67 0 83 3 100
20 26 26 25 52 0 75 -18 16 -19 20 -5 27 20 12 19 52 -1 72 -17 17 -59 22 -49
6z"/>
<path d="M2460 5057 c-14 -7 -33 -28 -43 -47 -34 -69 6 -138 85 -147 40 -5 49
-2 79 25 29 26 34 37 34 77 0 40 -5 51 -33 76 -35 32 -79 38 -122 16z m84 -43
c34 -33 11 -114 -31 -114 -27 0 -53 31 -53 63 0 56 50 86 84 51z"/>
<path d="M1047 5023 c-4 -3 -7 -13 -7 -22 1 -13 3 -13 11 2 11 19 8 33 -4 20z"/>
<path d="M2070 5000 c-6 -12 -21 -20 -36 -20 -13 0 -40 -7 -59 -14 -29 -12
-35 -20 -35 -44 0 -51 59 -79 110 -52 13 7 21 7 25 0 3 -5 18 -10 32 -10 19 0
24 4 19 16 -3 9 -6 20 -6 25 0 4 -7 6 -16 2 -13 -5 -15 -2 -9 15 8 27 -5 28
-35 2 -27 -23 -56 -26 -63 -6 -8 19 12 34 54 42 50 10 69 22 69 44 0 27 -36
26 -50 0z"/>
<path d="M1070 4989 c-8 -15 -8 -29 -1 -51 13 -37 5 -51 -14 -25 -11 16 -13
16 -19 2 -4 -11 -12 -14 -27 -10 -17 6 -20 3 -17 -17 2 -18 10 -24 34 -26 47
-5 64 18 64 89 0 64 -3 70 -20 38z"/>
<path d="M2182 4955 c0 -16 2 -22 5 -12 2 9 2 23 0 30 -3 6 -5 -1 -5 -18z"/>
<path d="M3010 4670 c0 -15 7 -20 25 -20 18 0 25 5 25 20 0 15 -7 20 -25 20
-18 0 -25 -5 -25 -20z"/>
<path d="M360 4505 l0 -105 30 0 30 0 0 85 0 85 35 0 35 0 0 -85 0 -85 30 0
30 0 0 105 0 105 -95 0 -95 0 0 -105z"/>
<path d="M600 4465 l0 -145 30 0 c30 0 30 0 30 57 0 54 1 55 18 40 27 -24 69
-21 97 7 75 75 8 214 -85 179 -17 -6 -30 -7 -30 -2 0 5 -13 9 -30 9 l-30 0 0
-145z m140 86 c14 -27 13 -84 -2 -99 -30 -30 -78 3 -78 54 0 56 57 88 80 45z"/>
<path d="M891 4596 c-30 -16 -50 -52 -51 -89 -1 -84 83 -132 160 -92 37 19 50
43 50 90 0 47 -13 71 -50 90 -35 18 -77 19 -109 1z m93 -48 c21 -30 20 -61 -2
-88 -38 -47 -102 3 -86 66 12 45 63 58 88 22z"/>
<path d="M1110 4582 c-25 -25 -30 -38 -30 -77 0 -39 5 -52 30 -77 28 -28 36
-30 78 -25 31 3 52 12 64 27 23 29 23 36 -4 44 -16 4 -28 -1 -39 -16 -12 -16
-23 -19 -42 -14 -53 13 -46 126 7 126 14 0 29 -7 34 -16 7 -13 15 -15 37 -7
27 9 27 9 8 32 -13 16 -33 25 -65 28 -42 5 -50 3 -78 -25z"/>
<path d="M1310 4505 l0 -105 28 0 c24 0 34 10 67 68 l40 67 3 -67 c3 -65 4
-68 27 -68 25 0 25 0 25 105 l0 105 -27 0 c-24 0 -34 -11 -68 -68 l-40 -67 -3
68 c-3 64 -4 67 -27 67 -25 0 -25 0 -25 -105z"/>
<path d="M1560 4505 c0 -105 0 -105 25 -105 22 0 24 4 27 58 l3 57 19 -58 c18
-51 23 -58 45 -55 19 2 28 14 47 63 l23 60 0 -62 c1 -60 2 -63 26 -63 l25 0 0
105 0 105 -34 0 c-33 0 -35 -2 -58 -65 -12 -36 -26 -65 -30 -65 -3 0 -16 29
-28 65 -21 63 -23 65 -56 65 l-34 0 0 -105z"/>
<path d="M1894 4600 c-34 -13 -54 -50 -54 -97 0 -59 31 -93 93 -100 43 -5 49
-3 82 30 48 48 49 95 1 143 -35 35 -75 43 -122 24z m80 -43 c13 -10 17 -24 14
-57 -3 -39 -7 -46 -32 -55 -24 -8 -31 -6 -47 14 -23 28 -24 59 -3 89 17 25 42
28 68 9z"/>
<path d="M2180 4602 c0 -5 16 -49 35 -98 19 -49 35 -96 35 -104 0 -22 -20 -40
-43 -40 -30 0 -16 -34 15 -38 57 -7 59 -3 142 221 l25 67 -28 0 c-26 0 -30 -6
-52 -70 -13 -38 -26 -67 -29 -64 -3 3 -14 33 -26 67 -18 53 -24 62 -47 65 -15
2 -27 -1 -27 -6z"/>
<path d="M2560 4582 c-25 -25 -30 -38 -30 -77 0 -39 5 -52 30 -77 28 -28 36
-30 78 -25 31 3 52 12 64 27 23 29 23 36 -4 44 -16 4 -28 -1 -39 -16 -12 -16
-23 -19 -42 -14 -53 13 -46 126 7 126 14 0 29 -7 34 -16 7 -13 15 -15 37 -7
27 9 27 9 8 32 -13 16 -33 25 -65 28 -42 5 -50 3 -78 -25z"/>
<path d="M2760 4505 l0 -105 83 0 c69 0 87 3 100 18 21 23 22 60 2 82 -14 15
-14 18 0 30 20 17 19 36 -5 60 -17 17 -33 20 -100 20 l-80 0 0 -105z m135 45
c0 -10 -12 -16 -37 -18 -33 -3 -38 0 -38 18 0 18 5 21 38 18 25 -2 37 -8 37
-18z m4 -69 c27 -17 4 -41 -39 -41 -36 0 -40 2 -40 25 0 22 4 25 33 25 17 0
38 -4 46 -9z"/>
<path d="M3010 4505 l0 -105 25 0 25 0 0 105 0 105 -25 0 -25 0 0 -105z"/>
<path d="M3090 4590 c0 -16 7 -20 30 -20 l30 0 0 -85 0 -85 30 0 30 0 0 85 0
85 35 0 c28 0 35 4 35 20 0 19 -7 20 -95 20 -88 0 -95 -1 -95 -20z"/>
<path d="M1920 4210 c0 -15 7 -20 25 -20 18 0 25 5 25 20 0 15 -7 20 -25 20
-18 0 -25 -5 -25 -20z"/>
<path d="M700 4045 l0 -105 30 0 c29 0 30 2 30 45 0 45 0 45 35 45 35 0 35 0
35 -45 0 -43 1 -45 30 -45 l30 0 0 105 0 105 -30 0 c-28 0 -30 -2 -30 -40 0
-39 -1 -40 -35 -40 -34 0 -35 1 -35 40 0 38 -2 40 -30 40 l-30 0 0 -105z"/>
<path d="M990 4137 c-14 -7 -33 -28 -43 -47 -34 -69 6 -138 85 -147 40 -5 49
-2 79 25 29 26 34 37 34 77 0 40 -5 51 -33 76 -35 32 -79 38 -122 16z m84 -43
c34 -33 11 -114 -31 -114 -27 0 -53 31 -53 63 0 56 50 86 84 51z"/>
<path d="M1190 4045 l0 -105 83 0 c69 0 87 3 100 18 21 23 22 60 2 82 -14 15
-14 18 0 30 20 17 19 36 -5 60 -17 17 -33 20 -100 20 l-80 0 0 -105z m135 45
c0 -10 -12 -16 -37 -18 -33 -3 -38 0 -38 18 0 18 5 21 38 18 25 -2 37 -8 37
-18z m4 -69 c27 -17 4 -41 -39 -41 -36 0 -40 2 -40 25 0 22 4 25 33 25 17 0
38 -4 46 -9z"/>
<path d="M1471 4136 c-30 -16 -50 -52 -51 -89 -1 -84 83 -132 160 -92 37 19
50 43 50 90 0 47 -13 71 -50 90 -35 18 -77 19 -109 1z m93 -48 c21 -30 20 -61
-2 -88 -38 -47 -102 3 -86 66 12 45 63 58 88 22z"/>
<path d="M1670 4005 l0 -145 30 0 c30 0 30 0 30 57 0 54 1 55 18 40 27 -24 69
-21 97 7 75 75 8 214 -85 179 -17 -6 -30 -7 -30 -2 0 5 -13 9 -30 9 l-30 0 0
-145z m140 86 c14 -27 13 -84 -2 -99 -30 -30 -78 3 -78 54 0 56 57 88 80 45z"/>
<path d="M1920 4045 l0 -105 25 0 25 0 0 105 0 105 -25 0 -25 0 0 -105z"/>
<path d="M2024 4103 c9 -61 36 -86 88 -81 l38 4 0 -43 c0 -41 1 -43 30 -43
l30 0 0 105 0 105 -30 0 c-29 0 -30 -2 -30 -45 0 -40 -2 -45 -23 -45 -32 0
-47 18 -47 57 0 30 -3 33 -31 33 l-31 0 6 -47z"/>
<path d="M2260 4045 l0 -105 30 0 c29 0 30 2 30 45 0 45 0 45 35 45 35 0 35 0
35 -45 0 -43 1 -45 30 -45 l30 0 0 105 0 105 -30 0 c-28 0 -30 -2 -30 -40 0
-39 -1 -40 -35 -40 -34 0 -35 1 -35 40 0 38 -2 40 -30 40 l-30 0 0 -105z"/>
<path d="M2500 4045 l0 -105 28 0 c23 0 34 11 69 68 l43 67 0 -67 c0 -66 1
-68 25 -68 l25 0 0 105 0 105 -25 0 c-21 0 -34 -13 -68 -67 l-42 -68 -3 68
c-3 64 -4 67 -27 67 -25 0 -25 0 -25 -105z"/>
<path d="M2765 4100 l37 -51 -36 -52 -37 -52 33 -3 c18 -2 34 1 36 7 2 6 12
21 21 33 l18 21 19 -31 c15 -26 25 -32 51 -32 l33 0 -36 55 -37 55 32 47 31
48 -27 3 c-21 3 -33 -4 -50 -24 -22 -28 -23 -28 -37 -9 -9 11 -16 23 -16 28 0
4 -16 7 -36 7 l-36 0 37 -50z"/>
<path d="M2530 3750 c0 -15 7 -20 25 -20 18 0 25 5 25 20 0 15 -7 20 -25 20
-18 0 -25 -5 -25 -20z"/>
<path d="M2890 3742 c0 -16 3 -63 6 -105 6 -63 10 -77 24 -77 14 0 18 13 23
68 4 37 7 84 7 105 0 35 -2 37 -30 37 -26 0 -30 -4 -30 -28z"/>
<path d="M683 3666 c-25 -21 -28 -31 -28 -81 0 -50 3 -60 28 -81 36 -31 94
-32 131 -3 31 25 33 45 5 54 -15 5 -25 1 -35 -14 -32 -44 -74 -19 -74 44 0 60
33 84 70 50 16 -14 60 -10 60 5 0 5 -12 18 -26 29 -37 29 -95 28 -131 -3z"/>
<path d="M880 3586 l0 -106 25 0 c24 0 25 2 26 68 0 37 3 60 6 52 3 -8 14 -39
25 -67 16 -43 24 -53 43 -53 19 0 26 9 40 53 26 77 35 79 35 9 0 -55 2 -62 20
-62 19 0 20 7 20 105 l0 105 -33 0 c-32 0 -34 -2 -56 -71 -12 -39 -24 -69 -26
-67 -2 2 -14 33 -27 68 -22 63 -24 65 -61 68 l-37 3 0 -105z"/>
<path d="M1192 3674 c-28 -19 -28 -41 -1 -49 14 -5 25 -1 33 10 16 22 51 16
51 -10 0 -14 -10 -21 -38 -27 -59 -12 -77 -25 -77 -57 0 -50 60 -78 110 -51
13 7 21 7 25 0 3 -5 18 -10 32 -10 19 0 24 4 19 16 -3 9 -6 47 -6 85 0 56 -4
73 -20 89 -25 25 -95 27 -128 4z m88 -119 c0 -18 -7 -26 -26 -31 -17 -4 -29
-2 -34 7 -11 17 -4 28 24 39 32 13 36 12 36 -15z"/>
<path d="M1390 3585 l0 -105 30 0 c28 0 30 2 30 40 0 22 4 40 10 40 5 0 19
-18 30 -40 17 -34 25 -40 51 -40 l31 0 -23 38 c-12 20 -28 43 -35 51 -10 11
-9 20 4 47 8 19 22 34 29 34 7 0 13 9 13 21 0 16 -5 20 -27 17 -22 -2 -32 -12
-47 -45 -11 -24 -23 -43 -28 -43 -4 0 -8 20 -8 45 0 43 -1 45 -30 45 l-30 0 0
-105z"/>
<path d="M1631 3676 c-30 -16 -50 -52 -51 -89 -1 -84 83 -132 160 -92 37 19
50 43 50 90 0 47 -13 71 -50 90 -35 18 -77 19 -109 1z m93 -48 c21 -30 20 -61
-2 -88 -38 -47 -102 3 -86 66 12 45 63 58 88 22z"/>
<path d="M1840 3605 c0 -78 -2 -85 -20 -85 -13 0 -20 -7 -20 -20 0 -16 7 -20
34 -20 49 0 66 28 66 107 l0 63 35 0 35 0 0 -85 0 -85 30 0 30 0 0 105 0 105
-95 0 -95 0 0 -85z"/>
<path d="M2080 3585 l0 -105 28 0 c24 0 34 10 67 68 l40 67 3 -67 c3 -65 4
-68 27 -68 25 0 25 0 25 105 l0 105 -27 0 c-24 0 -34 -11 -68 -68 l-40 -67 -3
68 c-3 64 -4 67 -27 67 -25 0 -25 0 -25 -105z"/>
<path d="M2320 3585 l0 -105 30 0 c28 0 30 2 30 40 0 22 4 40 10 40 5 0 19
-18 30 -40 17 -34 25 -40 51 -40 l31 0 -23 38 c-12 20 -28 43 -35 51 -10 11
-9 20 4 47 8 19 22 34 29 34 7 0 13 9 13 21 0 16 -5 20 -27 17 -22 -2 -32 -12
-47 -45 -11 -24 -23 -43 -28 -43 -4 0 -8 20 -8 45 0 43 -1 45 -30 45 l-30 0 0
-105z"/>
<path d="M2530 3585 l0 -105 25 0 25 0 0 105 0 105 -25 0 -25 0 0 -105z"/>
<path d="M2640 3585 l0 -105 80 0 c67 0 83 3 100 20 26 26 25 52 0 75 -18 16
-19 20 -5 27 20 12 19 52 -1 72 -11 12 -36 16 -95 16 l-79 0 0 -105z m136 54
c9 -16 -15 -29 -53 -29 -26 0 -33 4 -33 20 0 17 7 20 39 20 22 0 43 -5 47 -11z
m-1 -94 c0 -16 -8 -21 -42 -23 -40 -3 -43 -2 -43 23 0 25 3 26 43 23 34 -2 42
-7 42 -23z"/>
<path d="M2890 3510 c0 -27 3 -30 30 -30 27 0 30 3 30 30 0 27 -3 30 -30 30
-27 0 -30 -3 -30 -30z"/>
<path d="M410 3090 c0 -40 4 -70 10 -70 6 0 10 27 10 60 l0 60 35 0 34 0 4
-62 3 -63 2 73 2 72 -50 0 -50 0 0 -70z"/>
<path d="M2040 3135 c0 -18 -4 -23 -15 -19 -22 9 -45 -14 -45 -46 0 -32 23
-55 45 -46 11 4 15 -1 15 -19 0 -14 5 -25 10 -25 6 0 10 11 10 24 0 19 4 23
20 19 14 -4 23 2 31 21 17 36 -3 81 -31 73 -16 -4 -20 0 -20 19 0 13 -4 24
-10 24 -5 0 -10 -11 -10 -25z m-2 -68 c-4 -37 -23 -46 -38 -18 -14 27 3 63 26
54 10 -4 14 -16 12 -36z m57 2 c0 -24 -5 -34 -15 -34 -16 0 -25 37 -16 62 10
26 31 8 31 -28z"/>
<path d="M552 3108 c-7 -7 -12 -24 -12 -38 0 -30 16 -50 41 -50 23 0 49 27 49
50 0 39 -52 64 -78 38z m42 -4 c32 -12 15 -74 -19 -74 -14 0 -25 42 -15 60 12
22 12 22 34 14z"/>
<path d="M650 3049 c0 -39 4 -69 10 -69 6 0 10 11 10 24 0 19 4 23 19 19 25
-6 53 34 44 65 -6 24 -5 24 -50 28 l-33 2 0 -69z m70 21 c0 -22 -25 -44 -40
-35 -14 9 -13 62 3 68 17 6 37 -12 37 -33z"/>
<path d="M762 3073 c-1 -29 2 -53 6 -53 4 0 17 15 27 33 l20 32 3 -32 c5 -52
22 -38 22 17 0 57 -11 63 -37 20 -22 -38 -31 -38 -36 3 -3 22 -4 15 -5 -20z"/>
<path d="M872 3070 c0 -37 2 -47 7 -30 4 15 15 26 28 28 17 3 22 -3 26 -25 2
-15 4 -3 4 27 0 30 -2 45 -4 33 -3 -16 -11 -23 -28 -23 -17 0 -25 7 -28 23 -2
12 -4 -3 -5 -33z"/>
<path d="M970 3069 l0 -50 38 3 c30 2 38 7 40 26 3 18 -2 23 -27 28 -21 5 -31
12 -31 25 0 11 -4 19 -10 19 -5 0 -10 -23 -10 -51z m55 -19 c0 -8 -8 -16 -17
-18 -13 -2 -18 3 -18 18 0 15 5 20 18 18 9 -2 17 -10 17 -18z"/>
<path d="M1063 3113 c13 -3 17 -16 19 -51 l1 -47 6 44 c4 31 12 46 26 52 14 5
6 7 -25 7 -25 0 -37 -2 -27 -5z"/>
<path d="M1152 3108 c-17 -17 -15 -63 2 -78 18 -15 58 -10 64 8 3 11 0 12 -18
2 -18 -10 -25 -9 -38 4 -15 15 -13 16 26 16 46 0 50 5 26 38 -17 24 -43 29
-62 10z m46 -10 c19 -19 14 -28 -13 -28 -24 0 -34 18 -18 33 9 10 17 9 31 -5z"/>
<path d="M1300 3070 l0 -51 38 3 c37 3 37 3 37 48 0 45 0 45 -37 48 l-38 3 0
-51z m55 20 c0 -8 -8 -16 -17 -18 -13 -2 -18 3 -18 18 0 15 5 20 18 18 9 -2
17 -10 17 -18z m10 -45 c0 -5 -10 -11 -22 -13 -16 -2 -23 2 -23 13 0 11 7 15
23 13 12 -2 22 -7 22 -13z"/>
<path d="M1467 3113 c-15 -15 -6 -23 14 -12 16 8 24 8 32 0 13 -13 -6 -31 -34
-31 -22 0 -31 -25 -16 -39 7 -5 27 -9 45 -9 30 1 32 3 32 38 0 20 -5 41 -12
48 -13 13 -50 16 -61 5z m53 -62 c0 -12 -29 -23 -41 -15 -18 10 -9 24 16 24
14 0 25 -4 25 -9z"/>
<path d="M1563 3113 c13 -3 17 -15 17 -49 0 -24 5 -44 10 -44 6 0 10 20 10 44
0 34 4 46 18 49 9 3 -3 5 -28 5 -25 0 -37 -2 -27 -5z"/>
<path d="M1652 3068 c1 -36 2 -43 5 -20 5 40 19 41 27 2 8 -41 22 -38 37 8
l14 37 6 -40 c6 -39 6 -39 8 13 1 61 -17 68 -33 14 -12 -42 -22 -40 -30 3 -4
21 -13 35 -21 35 -12 0 -15 -12 -13 -52z"/>
<path d="M1792 3108 c-7 -7 -12 -24 -12 -38 0 -30 16 -50 41 -50 23 0 49 27
49 50 0 39 -52 64 -78 38z m46 -10 c28 -28 -3 -83 -33 -58 -8 7 -15 20 -15 29
0 17 18 41 30 41 3 0 11 -5 18 -12z"/>
<path d="M1896 3105 c-20 -21 -21 -49 0 -69 21 -22 51 -20 64 4 13 23 5 26
-16 5 -21 -21 -44 -8 -44 25 0 32 16 42 44 28 14 -8 17 -7 14 4 -7 19 -43 21
-62 3z"/>
<path d="M2152 3108 c-17 -17 -15 -63 2 -78 18 -15 58 -10 64 8 3 11 0 12 -18
2 -18 -10 -25 -9 -38 4 -15 15 -13 16 26 16 46 0 50 5 26 38 -17 24 -43 29
-62 10z m46 -10 c19 -19 14 -28 -13 -28 -24 0 -34 18 -18 33 9 10 17 9 31 -5z"/>
<path d="M2251 3045 c1 -38 4 -60 6 -47 3 15 12 22 27 22 29 0 46 18 46 51 0
33 -19 50 -54 47 -26 -2 -26 -3 -25 -73z m57 53 c28 -28 -3 -83 -33 -58 -8 7
-15 20 -15 29 0 17 18 41 30 41 3 0 11 -5 18 -12z"/>
<path d="M2350 3111 c0 -6 7 -28 15 -48 8 -19 15 -42 15 -49 0 -8 -7 -14 -15
-14 -8 0 -15 -5 -15 -11 0 -6 7 -9 17 -7 9 2 26 29 40 67 26 70 24 96 -2 35
l-17 -39 -12 32 c-12 35 -26 53 -26 34z"/>
<path d="M2511 3106 c-17 -20 -10 -67 12 -80 19 -12 48 0 55 25 3 9 -2 8 -16
-5 -18 -15 -24 -16 -37 -6 -19 16 -19 44 0 60 12 10 19 10 27 2 17 -17 33 -15
18 3 -16 19 -44 19 -59 1z"/>
<path d="M2600 3071 l0 -51 35 0 c41 0 47 11 37 60 -7 30 -12 35 -40 38 l-32
3 0 -50z m58 22 c5 -17 -26 -29 -40 -15 -6 6 -7 15 -3 22 9 14 37 9 43 -7z m0
-45 c-3 -7 -13 -13 -23 -13 -10 0 -20 6 -22 13 -3 7 5 12 22 12 17 0 25 -5 23
-12z"/>
<path d="M2703 3104 c-3 -9 -1 -24 5 -34 8 -13 7 -21 -6 -34 -9 -9 -12 -16 -6
-16 6 0 19 9 29 20 23 26 33 25 38 -2 2 -13 5 1 6 30 1 52 1 52 -29 52 -19 0
-33 -6 -37 -16z m57 -14 c0 -21 -33 -29 -45 -10 -9 15 4 30 26 30 12 0 19 -7
19 -20z"/>
<path d="M2803 3113 c13 -3 17 -15 17 -49 0 -24 5 -44 10 -44 6 0 10 20 10 44
0 34 4 46 18 49 9 3 -3 5 -28 5 -25 0 -37 -2 -27 -5z"/>
<path d="M2897 3113 c-15 -15 -6 -23 14 -12 16 8 24 8 32 0 13 -13 -6 -31 -34
-31 -22 0 -31 -25 -16 -39 7 -5 27 -9 45 -9 30 1 32 3 32 38 0 20 -5 41 -12
48 -13 13 -50 16 -61 5z m53 -62 c0 -12 -29 -23 -41 -15 -18 10 -9 24 16 24
14 0 25 -4 25 -9z"/>
<path d="M3053 3113 c13 -3 17 -15 17 -49 0 -24 5 -44 10 -44 6 0 10 20 10 44
0 34 4 46 18 49 9 3 -3 5 -28 5 -25 0 -37 -2 -27 -5z"/>
<path d="M3140 3106 c-15 -19 0 -22 18 -4 10 10 16 9 29 -4 15 -15 13 -17 -18
-25 -24 -7 -34 -15 -34 -29 0 -15 7 -19 40 -20 l41 -1 -6 46 c-4 40 -8 46 -31
49 -14 2 -31 -4 -39 -12z m48 -62 c-9 -9 -21 -13 -27 -10 -20 13 -11 26 16 26
25 0 26 -1 11 -16z"/>
<path d="M499 2924 c-17 -21 -17 -87 0 -108 20 -23 48 -20 67 9 15 23 15 27
-1 51 -12 19 -23 25 -41 21 -16 -3 -23 0 -21 7 2 6 14 13 28 14 38 6 47 22 12
22 -17 0 -37 -7 -44 -16z m49 -46 c28 -28 -3 -83 -33 -58 -8 7 -15 20 -15 29
0 17 18 41 30 41 3 0 11 -5 18 -12z"/>
<path d="M810 2930 c0 -5 5 -10 10 -10 6 0 10 5 10 10 0 6 -4 10 -10 10 -5 0
-10 -4 -10 -10z"/>
<path d="M1862 2928 c-15 -15 -16 -82 -2 -109 16 -28 58 -25 72 6 8 19 8 31
-1 51 -10 23 -16 25 -42 20 -22 -4 -29 -2 -27 7 3 6 18 13 34 15 44 5 54 22
13 22 -19 0 -40 -5 -47 -12z m58 -78 c0 -16 -6 -30 -12 -33 -24 -8 -38 5 -38
33 0 16 6 30 13 33 23 8 37 -5 37 -33z"/>
<path d="M1390 2920 c0 -5 5 -10 10 -10 6 0 10 5 10 10 0 6 -4 10 -10 10 -5 0
-10 -4 -10 -10z"/>
<path d="M392 2888 c-7 -7 -12 -24 -12 -38 0 -30 16 -50 41 -50 23 0 49 27 49
50 0 39 -52 64 -78 38z m42 -4 c32 -12 15 -74 -19 -74 -14 0 -25 42 -15 60 12
22 12 22 34 14z"/>
<path d="M606 2884 c-9 -8 -16 -24 -16 -34 0 -41 55 -65 80 -35 14 17 0 21
-16 5 -12 -12 -44 -3 -44 11 0 5 16 9 35 9 27 0 35 4 35 18 0 39 -45 55 -74
26z m54 -20 c0 -8 -10 -14 -25 -14 -27 0 -32 9 -14 27 14 14 39 6 39 -13z"/>
<path d="M700 2828 c0 -39 4 -68 10 -68 6 0 10 11 10 24 0 19 4 23 19 19 20
-5 51 21 51 43 0 35 -20 53 -55 52 l-35 -1 0 -69z m70 22 c0 -16 -6 -30 -12
-33 -24 -8 -38 5 -38 33 0 16 6 30 13 33 23 8 37 -5 37 -33z"/>
<path d="M810 2850 c0 -27 5 -50 10 -50 6 0 10 23 10 50 0 28 -4 50 -10 50 -5
0 -10 -22 -10 -50z"/>
<path d="M855 2891 c14 -6 22 -21 26 -52 l6 -44 1 47 c2 35 6 48 20 51 9 3 -3
5 -28 5 -31 0 -39 -2 -25 -7z"/>
<path d="M940 2849 l0 -50 38 3 c30 2 38 7 40 26 3 18 -2 23 -27 28 -21 5 -31
12 -31 25 0 11 -4 19 -10 19 -5 0 -10 -23 -10 -51z m55 -19 c0 -8 -8 -16 -17
-18 -13 -2 -18 3 -18 18 0 15 5 20 18 18 9 -2 17 -10 17 -18z"/>
<path d="M1106 2885 c-20 -21 -21 -49 0 -69 21 -22 51 -20 64 4 13 23 5 26
-16 5 -21 -21 -44 -8 -44 25 0 32 16 42 44 28 14 -8 17 -7 14 4 -7 19 -43 21
-62 3z"/>
<path d="M1190 2849 l0 -50 38 3 c35 3 37 5 38 38 1 45 -11 60 -47 60 -28 0
-29 -2 -29 -51z m55 21 c0 -8 -8 -16 -17 -18 -13 -2 -18 3 -18 18 0 15 5 20
18 18 9 -2 17 -10 17 -18z m10 -45 c0 -5 -10 -11 -22 -13 -16 -2 -23 2 -23 13
0 11 7 15 23 13 12 -2 22 -7 22 -13z"/>
<path d="M1302 2888 c-7 -7 -12 -24 -12 -38 0 -30 16 -50 41 -50 23 0 49 27
49 50 0 39 -52 64 -78 38z m46 -10 c28 -28 -3 -83 -33 -58 -8 7 -15 20 -15 29
0 17 18 41 30 41 3 0 11 -5 18 -12z"/>
<path d="M1400 2850 c0 -27 5 -50 10 -50 6 0 10 23 10 50 0 28 -4 50 -10 50
-5 0 -10 -22 -10 -50z"/>
<path d="M1500 2891 c0 -6 7 -28 15 -48 8 -19 15 -42 15 -49 0 -8 -7 -14 -15
-14 -8 0 -15 -5 -15 -11 0 -6 7 -9 17 -7 9 2 26 29 40 67 26 70 24 96 -2 35
l-17 -39 -12 32 c-12 35 -26 53 -26 34z"/>
<path d="M1598 2850 c-2 -30 1 -49 7 -47 6 2 11 23 13 46 3 37 6 42 25 39 18
-2 23 -12 28 -48 l6 -45 1 53 2 52 -39 0 -39 0 -4 -50z"/>
<path d="M1713 2850 c-1 -30 1 -46 4 -35 8 34 19 37 37 11 28 -44 76 -28 76
25 0 15 -7 32 -15 39 -19 15 -65 5 -65 -15 0 -24 -28 -17 -33 8 -2 12 -4 -3
-4 -33z m95 5 c4 -31 -15 -50 -35 -33 -16 13 -17 40 -1 56 18 18 33 9 36 -23z"/>
<path d="M1960 2856 c0 -26 -5 -47 -12 -50 -7 -3 -4 -5 7 -3 16 2 21 11 23 45
3 34 7 42 23 42 16 0 19 -7 19 -45 0 -25 5 -45 10 -45 6 0 10 23 10 50 l0 50
-40 0 -40 0 0 -44z"/>
<path d="M2076 2884 c-20 -20 -20 -48 0 -68 20 -20 48 -20 64 -1 14 17 0 21
-16 5 -12 -12 -44 -3 -44 11 0 5 16 9 35 9 27 0 35 4 35 18 0 39 -45 55 -74
26z m54 -20 c0 -8 -10 -14 -25 -14 -27 0 -32 9 -14 27 14 14 39 6 39 -13z"/>
<path d="M2170 2850 c0 -27 5 -50 10 -50 6 0 10 11 10 25 0 18 5 25 20 25 15
0 20 -7 20 -25 0 -14 5 -25 10 -25 6 0 10 23 10 50 0 28 -4 50 -10 50 -5 0
-10 -9 -10 -20 0 -13 -7 -20 -20 -20 -13 0 -20 7 -20 20 0 11 -4 20 -10 20 -5
0 -10 -22 -10 -50z"/>
<path d="M2283 2850 c0 -30 2 -43 4 -27 2 15 2 39 0 55 -2 15 -4 2 -4 -28z"/>
<path d="M2381 2886 c-17 -20 -10 -67 12 -80 19 -12 48 0 55 25 3 9 -3 7 -17
-6 -22 -19 -23 -19 -37 0 -17 23 -17 27 0 50 12 17 16 17 30 6 9 -8 20 -11 23
-7 9 9 -16 26 -38 26 -9 0 -22 -6 -28 -14z"/>
<path d="M2482 2888 c-7 -7 -12 -24 -12 -38 0 -30 16 -50 41 -50 23 0 49 27
49 50 0 39 -52 64 -78 38z m42 -4 c32 -12 15 -74 -19 -74 -14 0 -25 42 -15 60
12 22 12 22 34 14z"/>
<path d="M2578 2850 c-2 -30 1 -49 7 -47 6 2 11 23 13 46 3 37 6 42 25 39 18
-2 23 -12 28 -48 l6 -45 1 53 2 52 -39 0 -39 0 -4 -50z"/>
<path d="M2696 2884 c-30 -30 -9 -84 33 -84 25 0 41 20 41 50 0 47 -42 66 -74
34z m52 -6 c28 -28 -3 -83 -33 -58 -8 7 -15 20 -15 29 0 17 18 41 30 41 3 0
11 -5 18 -12z"/>
<path d="M2797 2863 c-3 -21 -8 -51 -11 -68 -3 -16 -3 -22 0 -12 4 12 16 17
44 17 28 0 40 -5 44 -17 3 -10 3 0 1 22 -3 22 -5 52 -5 68 0 24 -4 27 -34 27
-32 0 -34 -3 -39 -37z m63 -13 c0 -36 -2 -40 -25 -40 -27 0 -28 2 -19 49 5 21
12 31 25 31 15 0 19 -8 19 -40z"/>
<path d="M2912 2888 c-7 -7 -12 -24 -12 -38 0 -30 16 -50 41 -50 23 0 49 27
49 50 0 39 -52 64 -78 38z m42 -4 c32 -12 15 -74 -19 -74 -14 0 -25 42 -15 60
12 22 12 22 34 14z"/>
<path d="M3010 2850 l0 -50 64 0 c43 0 66 -4 69 -12 2 -7 3 0 1 16 -2 16 -4
44 -4 62 0 19 -4 34 -10 34 -5 0 -10 -21 -10 -46 0 -38 -3 -45 -17 -42 -13 2
-20 16 -24 48 l-6 45 -1 -47 c-2 -41 -5 -48 -22 -48 -17 0 -20 7 -20 45 0 25
-4 45 -10 45 -5 0 -10 -22 -10 -50z"/>
<path d="M3173 2850 c0 -30 2 -43 4 -27 2 15 2 39 0 55 -2 15 -4 2 -4 -28z"/>
<path d="M677 2352 c-24 -27 -25 -322 -1 -346 14 -14 130 -16 1134 -16 1004 0
1120 2 1134 16 13 13 16 43 16 173 0 140 -2 160 -18 174 -17 16 -110 17 -1134
17 -1067 0 -1116 -1 -1131 -18z m283 -122 c12 -7 12 -12 2 -22 -10 -10 -14
-10 -21 1 -10 15 -41 8 -41 -9 0 -5 9 -10 20 -10 11 0 20 -4 20 -10 0 -5 -9
-10 -20 -10 -11 0 -20 -5 -20 -10 0 -17 31 -24 41 -9 7 11 11 11 21 1 10 -10
10 -15 -2 -22 -41 -26 -90 1 -90 50 0 49 49 76 90 50z m574 -2 c-3 -4 -14 -8
-24 -8 -10 0 -21 4 -24 8 -3 5 8 9 24 9 16 0 27 -4 24 -9z m326 2 c0 -5 -7
-10 -15 -10 -8 0 -15 5 -15 10 0 6 7 10 15 10 8 0 15 -4 15 -10z m-795 -65 c0
-40 0 -40 -42 -43 l-43 -3 0 46 0 46 43 -3 c42 -3 42 -3 42 -43z m93 33 c27
-27 7 -78 -30 -78 -10 0 -18 -7 -18 -15 0 -8 -7 -15 -15 -15 -12 0 -15 13 -15
60 l0 60 33 0 c18 0 38 -5 45 -12z m102 -2 c15 -19 9 -56 -11 -69 -9 -5 -28
-7 -42 -3 -48 12 -32 86 19 86 12 0 27 -7 34 -14z m100 -31 c0 -33 -4 -45 -15
-45 -10 0 -15 11 -15 35 0 19 -4 35 -10 35 -5 0 -10 -16 -10 -35 0 -24 -5 -35
-15 -35 -11 0 -15 12 -15 45 l0 45 40 0 40 0 0 -45z m90 23 l9 -23 0 23 c1 27
41 32 41 5 1 -17 1 -17 11 0 20 34 39 20 39 -28 0 -33 -4 -45 -15 -45 -8 0
-15 8 -15 18 -1 16 -1 16 -14 0 -18 -24 -46 -23 -46 2 0 16 -7 20 -31 20 -16
0 -28 -4 -25 -9 3 -5 16 -7 27 -4 16 4 20 2 17 -8 -6 -18 -45 -24 -64 -9 -17
15 -18 52 -2 68 20 20 58 14 68 -10z m188 3 c3 -10 -2 -12 -22 -7 -23 6 -26 3
-26 -19 0 -22 3 -25 26 -19 20 5 25 3 22 -7 -6 -18 -45 -24 -64 -9 -17 15 -18
52 -2 68 16 16 60 11 66 -7z m42 5 c0 -9 12 -16 28 -18 21 -2 27 -8 27 -28 0
-22 -5 -25 -42 -28 l-43 -3 0 45 c0 34 4 46 15 46 8 0 15 -6 15 -14z m101 2
c0 -10 2 -10 6 0 2 6 12 12 20 12 11 0 13 -5 8 -17 -4 -10 -7 -22 -7 -28 0 -5
3 -18 7 -27 5 -13 2 -18 -9 -18 -9 0 -16 6 -17 13 0 10 -2 10 -6 0 -2 -7 -11
-13 -19 -13 -10 0 -14 13 -14 45 0 33 4 45 15 45 8 0 15 -6 16 -12z m79 -33
c0 -33 -4 -45 -15 -45 -11 0 -15 12 -15 45 0 33 4 45 15 45 11 0 15 -12 15
-45z m131 28 c13 -15 11 -16 -13 -9 -25 6 -28 4 -28 -19 0 -22 3 -25 25 -19
16 4 25 2 25 -5 0 -16 -26 -24 -55 -17 -21 5 -25 12 -25 40 0 19 6 37 13 39
24 10 45 7 58 -10z m59 -5 l9 -23 7 23 c4 13 14 22 25 22 16 0 19 -8 19 -44 0
-44 0 -44 -35 -44 -25 0 -35 5 -36 17 -1 14 -2 14 -6 -1 -9 -34 -23 -17 -23
27 0 34 4 45 15 45 9 0 20 -10 25 -22z m148 -26 l3 -43 -38 3 c-48 4 -56 30
-16 52 l28 16 -30 -7 c-27 -6 -29 -5 -16 11 9 10 25 16 40 14 23 -3 26 -8 29
-46z m43 31 c1 -17 2 -17 6 0 2 9 13 17 24 17 23 0 24 -6 4 -26 -13 -13 -13
-18 1 -40 14 -20 14 -24 2 -24 -8 0 -19 5 -26 12 -9 9 -12 9 -12 0 0 -7 -7
-12 -15 -12 -11 0 -15 12 -15 45 0 33 4 45 15 45 8 0 16 -8 16 -17z m127 5 c7
-7 12 -21 12 -33 0 -12 -5 -26 -12 -33 -7 -7 -21 -12 -33 -12 -12 0 -26 5 -33
12 -7 7 -12 21 -12 33 0 12 5 26 12 33 7 7 21 12 33 12 12 0 26 -5 33 -12z
m102 -33 c0 -33 -4 -45 -15 -45 -10 0 -15 11 -15 35 0 19 -4 35 -10 35 -5 0
-10 -16 -10 -35 0 -29 -4 -35 -21 -35 -15 0 -19 4 -15 16 3 9 6 29 6 45 0 27
2 29 40 29 l40 0 0 -45z m50 28 c1 -17 1 -17 11 0 20 34 39 20 39 -28 0 -33
-4 -45 -15 -45 -8 0 -15 8 -15 18 -1 16 -1 16 -11 0 -20 -35 -39 -21 -39 27 0
33 4 45 15 45 8 0 15 -8 15 -17z m180 -1 c1 -16 1 -16 11 1 20 34 39 20 39
-28 0 -33 -4 -45 -15 -45 -8 0 -15 8 -15 18 -1 16 -1 16 -14 0 -9 -13 -27 -17
-69 -17 l-57 1 0 43 0 43 60 1 c50 0 60 -2 60 -17z"/>
<path d="M1020 2150 c0 -5 5 -10 10 -10 6 0 10 5 10 10 0 6 -4 10 -10 10 -5 0
-10 -4 -10 -10z"/>
<path d="M1114 2176 c-4 -10 -2 -22 4 -28 8 -8 13 -7 18 6 4 10 2 22 -4 28 -8
8 -13 7 -18 -6z"/>
<path d="M1210 2165 c0 -17 5 -25 13 -22 6 2 12 12 12 22 0 10 -6 20 -12 23
-8 2 -13 -6 -13 -23z"/>
<path d="M1680 2150 c0 -5 7 -10 15 -10 8 0 15 5 15 10 0 6 -7 10 -15 10 -8 0
-15 -4 -15 -10z"/>
<path d="M2155 2150 c-3 -5 -1 -10 4 -10 6 0 11 5 11 10 0 6 -2 10 -4 10 -3 0
-8 -4 -11 -10z"/>
<path d="M2324 2176 c-4 -10 -2 -22 4 -28 8 -8 13 -7 18 6 4 10 2 22 -4 28 -8
8 -13 7 -18 -6z"/>
<path d="M2644 2176 c-3 -8 -1 -23 5 -33 9 -15 10 -13 11 15 0 34 -7 42 -16
18z"/>
<path d="M0 745 l0 -745 845 0 845 0 0 28 c0 35 16 52 50 52 30 0 54 -32 45
-61 -6 -17 -1 -19 45 -19 44 0 51 2 46 16 -9 24 20 64 47 64 31 0 47 -18 47
-52 l0 -28 825 0 825 0 0 745 0 745 -1810 0 -1810 0 0 -745z m1850 -5 c22 -22
29 -100 9 -100 -7 0 -8 14 -4 39 6 35 4 41 -20 57 -22 15 -29 15 -51 3 -23
-12 -25 -17 -19 -56 4 -28 2 -43 -4 -43 -18 0 -13 81 6 102 21 24 58 23 83 -2z
m-1347 -43 c4 3 7 1 7 -5 0 -6 -4 -14 -10 -17 -13 -8 -13 -35 1 -35 6 0 13 9
16 20 9 33 34 20 40 -21 2 -12 -4 -15 -21 -12 -13 3 -27 0 -30 -6 -7 -11 5
-15 37 -11 13 1 17 -4 15 -17 -6 -37 -22 -43 -45 -15 -16 19 -22 22 -23 11 0
-8 6 -21 12 -27 10 -10 10 -15 -2 -22 -8 -5 -17 -10 -20 -10 -3 0 -12 5 -20
10 -12 7 -12 12 -2 22 6 6 12 18 12 26 0 12 -3 12 -15 2 -8 -7 -15 -19 -15
-26 0 -12 -4 -12 -20 -2 -29 18 -26 48 5 48 14 0 25 5 25 11 0 7 -10 9 -24 7
-19 -4 -23 -1 -23 18 0 13 3 21 8 18 5 -3 9 0 9 5 0 19 17 12 23 -9 3 -11 10
-20 16 -20 14 0 14 27 1 35 -5 3 -10 11 -10 16 0 6 5 7 10 4 6 -3 10 -1 10 6
0 8 3 9 13 0 8 -6 17 -8 20 -4z m180 0 c4 3 7 1 7 -5 0 -6 -4 -14 -10 -17 -13
-8 -13 -35 1 -35 6 0 13 9 16 20 9 33 34 20 40 -21 2 -12 -4 -15 -21 -12 -13
3 -27 0 -30 -6 -7 -11 5 -15 37 -11 13 1 17 -4 15 -17 -6 -37 -22 -43 -45 -15
-16 19 -22 22 -23 11 0 -8 6 -21 12 -27 10 -10 10 -15 -2 -22 -8 -5 -17 -10
-20 -10 -3 0 -12 5 -20 10 -12 7 -12 12 -2 22 6 6 12 18 12 26 0 12 -3 12 -15
2 -8 -7 -15 -19 -15 -26 0 -12 -4 -12 -20 -2 -29 18 -26 48 5 48 14 0 25 5 25
11 0 7 -10 9 -24 7 -19 -4 -23 -1 -23 18 0 13 3 21 8 18 5 -3 9 0 9 5 0 19 17
12 23 -9 3 -11 10 -20 16 -20 14 0 14 27 1 35 -5 3 -10 11 -10 16 0 6 5 7 10
4 6 -3 10 -1 10 6 0 8 3 9 13 0 8 -6 17 -8 20 -4z m906 4 c10 -7 11 -13 2 -30
-8 -14 -8 -21 -1 -21 5 0 10 3 10 8 0 4 4 13 9 21 8 12 11 12 24 -1 9 -8 17
-24 19 -34 2 -15 -2 -18 -24 -16 -16 1 -28 -2 -28 -8 0 -5 13 -10 30 -10 24 0
28 -3 23 -17 -10 -29 -52 -58 -84 -59 -30 -1 -38 13 -18 33 6 6 9 17 6 25 -3
8 -9 3 -17 -14 -11 -23 -15 -25 -31 -15 -29 18 -24 47 7 47 15 0 23 4 18 11
-3 6 -14 9 -24 6 -13 -3 -17 2 -17 19 0 13 3 21 7 19 4 -3 11 2 14 10 3 9 16
20 28 25 29 11 30 11 47 1z m1084 -4 c4 3 7 1 7 -5 0 -6 -4 -14 -10 -17 -13
-8 -13 -35 1 -35 6 0 13 9 16 20 9 33 34 20 40 -21 2 -12 -4 -15 -21 -12 -13
3 -27 0 -30 -6 -7 -11 5 -15 37 -11 13 1 17 -4 15 -17 -6 -37 -22 -43 -45 -15
-16 19 -22 22 -23 11 0 -8 6 -21 12 -27 10 -10 10 -15 -2 -22 -8 -5 -17 -10
-20 -10 -3 0 -12 5 -20 10 -12 7 -12 12 -2 22 6 6 12 18 12 26 0 12 -3 12 -15
2 -8 -7 -15 -19 -15 -26 0 -12 -4 -12 -20 -2 -29 18 -26 48 5 48 14 0 25 5 25
11 0 7 -10 9 -24 7 -19 -4 -23 -1 -23 18 0 13 3 21 8 18 5 -3 9 0 9 5 0 19 17
12 23 -9 3 -11 10 -20 16 -20 14 0 14 27 1 35 -5 3 -10 11 -10 16 0 6 5 7 10
4 6 -3 10 -1 10 6 0 8 3 9 13 0 8 -6 17 -8 20 -4z"/>
<path d="M1530 667 c0 -8 7 -18 16 -21 11 -4 14 -1 12 11 -4 21 -28 30 -28 10z"/>
<path d="M1580 582 c0 -5 7 -16 16 -23 14 -12 16 -11 13 5 -4 20 -29 35 -29
18z"/>
</g>
</svg>
